<svg xmlns="http://www.w3.org/2000/svg" viewBox="0 0 300 74.04"><defs><style>.cls-1{fill:#fff;}</style></defs><title>logo white version</title><g id="Layer_2" data-name="Layer 2"><g id="Layer_1-2" data-name="Layer 1"><path class="cls-1" d="M71.19,22.78,68.67,26.6a4.25,4.25,0,0,0-.59,3.29A31.87,31.87,0,1,1,7.3,25.51c.07-.18.14-.36.22-.54A31.83,31.83,0,0,1,60.21,15.2a4.85,4.85,0,0,0,6.84.21h0a36.79,36.79,0,1,0,4.14,7.37ZM66,23.69l3.25-4.94s0,0,0,0L65.3,22.35C65.54,22.79,65.76,23.24,66,23.69Z"/><path class="cls-1" d="M7,25h.54c-.08.18-.15.36-.22.54Z"/><path class="cls-1" d="M69.32,18.58l-.11.17L66,23.69,47.42,51.81,38.21,36.2a.7.7,0,0,0-1.2,0L27.35,51.81l-13.59-23h3.9a6,6,0,0,1,5.27,3.09L27,39.12l5.62-8a6.15,6.15,0,0,1,10.1.08l5.15,7.56L65.3,22.35l3.88-3.64Z"/><path class="cls-1" d="M69.32,18.58l-.11.17L66,23.69,47.42,51.81,38.21,36.2a.7.7,0,0,0-1.2,0L27.35,51.81l-13.59-23h3.9a6,6,0,0,1,5.27,3.09L27,39.12l5.62-8a6.15,6.15,0,0,1,10.1.08l5.15,7.56L65.3,22.35l3.88-3.64Z"/><path class="cls-1" d="M111.21,48.22a3.55,3.55,0,0,1-2.06.65,3.64,3.64,0,0,1-2.11-.66,3.3,3.3,0,0,1-1.29-1.92L101,30.49l-4.71,15.8A3.31,3.31,0,0,1,95,48.21a3.65,3.65,0,0,1-4.17,0,3.12,3.12,0,0,1-1.24-1.81L84.82,28.14a3.19,3.19,0,0,1-.08-.62A1.92,1.92,0,0,1,85.42,26,2.29,2.29,0,0,1,87,25.42a2,2,0,0,1,1.3.44,2.17,2.17,0,0,1,.77,1.3l4.13,17L98,28.1a4.06,4.06,0,0,1,1.13-2,3.2,3.2,0,0,1,3.81,0,4,4,0,0,1,1.12,2l4.8,16,4.14-17a2.22,2.22,0,0,1,.77-1.3,2.07,2.07,0,0,1,1.31-.44,2.31,2.31,0,0,1,1.57.59,1.93,1.93,0,0,1,.68,1.53,3.1,3.1,0,0,1-.08.6l-4.81,18.27A3.16,3.16,0,0,1,111.21,48.22Z"/><path class="cls-1" d="M124.35,48.32a6.87,6.87,0,0,1-2.66-1.88,8.49,8.49,0,0,1-1.52-2.64,9.28,9.28,0,0,1-.52-3.09A9.92,9.92,0,0,1,120,38.2a8,8,0,0,1,1-2.27A7.29,7.29,0,0,1,125,32.81a10,10,0,0,1,3.12-.46,10.35,10.35,0,0,1,3.07.44A7.79,7.79,0,0,1,133.6,34a7.33,7.33,0,0,1,1.68,1.83,7.75,7.75,0,0,1,1,2.29,9.92,9.92,0,0,1,.33,2.58,9.53,9.53,0,0,1-.31,2.46,8.23,8.23,0,0,1-1,2.26,7.35,7.35,0,0,1-1.65,1.86,8,8,0,0,1-2.41,1.26,10.09,10.09,0,0,1-3.14.47A9.81,9.81,0,0,1,124.35,48.32Zm7.06-3.53a6.35,6.35,0,0,0,1.17-4.08,6.47,6.47,0,0,0-1.17-4.12,4.37,4.37,0,0,0-6.53,0,6.47,6.47,0,0,0-1.16,4.13,6.41,6.41,0,0,0,1.16,4.08,4.38,4.38,0,0,0,6.53,0Z"/><path class="cls-1" d="M156.7,48.21a5.13,5.13,0,0,1-1.23-2.32l-3.24-9.53L149,45.89a5,5,0,0,1-1.22,2.32,2.64,2.64,0,0,1-1.81.61c-1.24,0-2.12-.91-2.65-2.72L139.71,35a2.61,2.61,0,0,1-.09-.66,1.57,1.57,0,0,1,.55-1.27,1.87,1.87,0,0,1,1.28-.48,1.83,1.83,0,0,1,1.08.35,1.91,1.91,0,0,1,.68,1.06l3.18,10.62,3.27-9.72a4.18,4.18,0,0,1,1-1.77,2.19,2.19,0,0,1,1.58-.59,2.22,2.22,0,0,1,1.59.59,4.18,4.18,0,0,1,1,1.77l3.27,9.72L161.26,34A1.78,1.78,0,0,1,163,32.61a1.89,1.89,0,0,1,1.28.48,1.57,1.57,0,0,1,.55,1.27,2.25,2.25,0,0,1-.1.66L161.16,46.1c-.53,1.81-1.42,2.72-2.66,2.72A2.64,2.64,0,0,1,156.7,48.21Z"/><path class="cls-1" d="M173.48,47.77a10.28,10.28,0,0,1-4-4.24,13.45,13.45,0,0,1-1.45-6.37,14.61,14.61,0,0,1,.87-5.15,11.06,11.06,0,0,1,2.41-3.91A10.8,10.8,0,0,1,175,25.67a11.88,11.88,0,0,1,4.57-.87,13.53,13.53,0,0,1,6.08,1.49A1.87,1.87,0,0,1,186.77,28a1.89,1.89,0,0,1-.53,1.33,1.67,1.67,0,0,1-1.26.59,1.91,1.91,0,0,1-.62-.13l-.59-.26c-.31-.14-.57-.25-.79-.33s-.51-.18-.86-.28a8.5,8.5,0,0,0-1.1-.24,9.46,9.46,0,0,0-1.21-.08,6.29,6.29,0,0,0-5.07,2.11c-1.19,1.4-1.78,3.53-1.78,6.37a9.59,9.59,0,0,0,1.79,6.24,6.27,6.27,0,0,0,5.16,2.19,10.24,10.24,0,0,0,4.82-1.4,1.47,1.47,0,0,1,.68-.18,1.41,1.41,0,0,1,1.13.55,1.94,1.94,0,0,1-.45,2.9,12.17,12.17,0,0,1-6.91,1.89A11.1,11.1,0,0,1,173.48,47.77Z"/><path class="cls-1" d="M191.45,47.78a4.09,4.09,0,0,1-1.57-3.41,6.27,6.27,0,0,1,.2-1.71,4.11,4.11,0,0,1,.56-1.27,3.06,3.06,0,0,1,1-.91,8,8,0,0,1,1.41-.61,10.44,10.44,0,0,1,1.89-.36c.76-.09,1.53-.15,2.31-.17s1.71,0,2.82,0V38.05a3,3,0,0,0-.73-2.23,2.94,2.94,0,0,0-2.14-.7l-.63,0-.63.08-.57.1a4.75,4.75,0,0,0-.58.14l-.52.14-.52.17-.44.16-.44.17-.35.14a1.19,1.19,0,0,1-.46.08,1.21,1.21,0,0,1-1-.48,1.68,1.68,0,0,1-.4-1.08,1.15,1.15,0,0,1,.72-1.13,13.88,13.88,0,0,1,6-1.27,10,10,0,0,1,2.68.34,6.16,6.16,0,0,1,2.09,1.06,4.57,4.57,0,0,1,1.4,1.92,7.6,7.6,0,0,1,.49,2.87v8.23a2,2,0,0,1-.57,1.51,1.92,1.92,0,0,1-1.36.53,1.89,1.89,0,0,1-1.94-2v-.53a4.52,4.52,0,0,1-1.68,2,5.4,5.4,0,0,1-3,.77A6.6,6.6,0,0,1,191.45,47.78Zm7.38-2.6a4.48,4.48,0,0,0,1.25-3.24v-.47c-1.08,0-1.94,0-2.57.05a16.61,16.61,0,0,0-1.8.18,2.91,2.91,0,0,0-1.25.44,2,2,0,0,0-.63.78,2.85,2.85,0,0,0-.23,1.22,2.17,2.17,0,0,0,.66,1.72,2.45,2.45,0,0,0,1.74.6A3.86,3.86,0,0,0,198.83,45.18Z"/><path class="cls-1" d="M209.26,48.25a2.27,2.27,0,0,1-.57-1.65V34.52a1.74,1.74,0,0,1,.61-1.43,2.11,2.11,0,0,1,1.45-.51,2.2,2.2,0,0,1,1.43.49,1.62,1.62,0,0,1,.59,1.35l-.05,1.67a5.21,5.21,0,0,1,1.66-2.5,4.12,4.12,0,0,1,2.75-1.05,1.41,1.41,0,0,1,1.15.5,1.89,1.89,0,0,1,.4,1.22,2,2,0,0,1-.37,1.2,1.19,1.19,0,0,1-1,.52,8.6,8.6,0,0,0-1.7.15,4.67,4.67,0,0,0-1.41.54,2.58,2.58,0,0,0-1.06,1.19,4.48,4.48,0,0,0-.37,1.94v6.83a2.16,2.16,0,0,1-.57,1.62,2,2,0,0,1-1.49.57A2,2,0,0,1,209.26,48.25Z"/><path class="cls-1" d="M225.41,48.32a6.87,6.87,0,0,1-2.66-1.88,8.49,8.49,0,0,1-1.52-2.64,9.28,9.28,0,0,1-.52-3.09A9.92,9.92,0,0,1,221,38.2a7.79,7.79,0,0,1,1-2.27,7.2,7.2,0,0,1,1.66-1.86,7.43,7.43,0,0,1,2.39-1.26,10,10,0,0,1,3.12-.46,10.3,10.3,0,0,1,3.07.44A7.68,7.68,0,0,1,234.66,34a7.33,7.33,0,0,1,1.68,1.83,7.75,7.75,0,0,1,1,2.29,9.79,9.79,0,0,1,0,5,8.23,8.23,0,0,1-1,2.26,7.35,7.35,0,0,1-1.65,1.86,7.84,7.84,0,0,1-2.41,1.26,10,10,0,0,1-3.14.47A9.85,9.85,0,0,1,225.41,48.32Zm7.06-3.53a6.35,6.35,0,0,0,1.17-4.08,6.47,6.47,0,0,0-1.17-4.12,4.37,4.37,0,0,0-6.53,0,6.53,6.53,0,0,0-1.16,4.13A6.35,6.35,0,0,0,226,44.79a4.37,4.37,0,0,0,6.52,0Z"/><path class="cls-1" d="M245,48.63a5.68,5.68,0,0,1-1.86-1.11,5,5,0,0,1-1.3-2,7.46,7.46,0,0,1-.48-2.76v-8a2.24,2.24,0,0,1,.59-1.66,2,2,0,0,1,1.49-.59,1.86,1.86,0,0,1,1.42.59,2.28,2.28,0,0,1,.57,1.66v8a3.48,3.48,0,0,0,.86,2.55,2.91,2.91,0,0,0,2.18.89A3.75,3.75,0,0,0,251.28,45a4.74,4.74,0,0,0,1.19-3.34v-6.8a2.28,2.28,0,0,1,.57-1.66,2,2,0,0,1,1.47-.59,1.92,1.92,0,0,1,1.46.59,2.27,2.27,0,0,1,.56,1.66v12a1.94,1.94,0,0,1-.58,1.51,2.12,2.12,0,0,1-1.47.53A2,2,0,0,1,253,48.3a1.87,1.87,0,0,1-.57-1.47v-.6Q251,49,247.17,49A6.12,6.12,0,0,1,245,48.63Z"/><path class="cls-1" d="M260.59,46.1a1.33,1.33,0,0,1,.37-.94,1.18,1.18,0,0,1,.93-.4,1.74,1.74,0,0,1,.84.24c.47.27.86.47,1.14.61a9.16,9.16,0,0,0,1.39.48,6.94,6.94,0,0,0,1.91.27,6.56,6.56,0,0,0,1.67-.19,2.75,2.75,0,0,0,1.27-.68,1.66,1.66,0,0,0,.52-1.27c0-.92-.75-1.56-2.25-1.93l-2.52-.64c-.77-.21-1.39-.39-1.87-.56a9.77,9.77,0,0,1-1.44-.62,3.21,3.21,0,0,1-1.75-2,4.91,4.91,0,0,1-.24-1.61,3.85,3.85,0,0,1,1.78-3.41A8.25,8.25,0,0,1,267,32.27a12.08,12.08,0,0,1,5.32,1.21,1.37,1.37,0,0,1,.87,1.3,1.27,1.27,0,0,1-.33.88A1.16,1.16,0,0,1,272,36a2.08,2.08,0,0,1-.63-.13l-.35-.13a4.26,4.26,0,0,0-.48-.17l-.51-.17a4.78,4.78,0,0,0-.64-.17c-.18,0-.39-.09-.64-.13A6.29,6.29,0,0,0,268,35c-.24,0-.49,0-.73,0a5.06,5.06,0,0,0-2.13.41,1.35,1.35,0,0,0-.87,1.27,1.32,1.32,0,0,0,.48,1.13,5,5,0,0,0,1.82.67l2.49.63a8.67,8.67,0,0,1,3.82,1.77,4,4,0,0,1,1.2,3.09,4.37,4.37,0,0,1-1.82,3.79,7.87,7.87,0,0,1-4.74,1.31,10.45,10.45,0,0,1-6.35-1.88A1.3,1.3,0,0,1,260.59,46.1Z"/><path class="cls-1" d="M277.78,36.47a7.21,7.21,0,0,1,2.78-3,8,8,0,0,1,4.29-1.14,8.31,8.31,0,0,1,3.33.63,5.94,5.94,0,0,1,2.33,1.72,7.81,7.81,0,0,1,1.33,2.48,9.54,9.54,0,0,1,.47,3,1.62,1.62,0,0,1-.29,1,1,1,0,0,1-.87.39H280.91q.25,4.58,4.68,4.57a7.49,7.49,0,0,0,4.29-1.64,1,1,0,0,1,.64-.22,1.16,1.16,0,0,1,.89.45,1.52,1.52,0,0,1,.39,1,1.43,1.43,0,0,1-.52,1.1,9,9,0,0,1-6,2.16,8.47,8.47,0,0,1-6.15-2.24,8.31,8.31,0,0,1-2.3-6.24A8.89,8.89,0,0,1,277.78,36.47Zm11.07,2.83a5.43,5.43,0,0,0-1.08-3.06A3.36,3.36,0,0,0,285,35a3.47,3.47,0,0,0-2.84,1.24,5.33,5.33,0,0,0-1.18,3Z"/><path class="cls-1" d="M296.48,48.23a2.31,2.31,0,0,1-.56-1.68V27.75a2.33,2.33,0,0,1,.57-1.67,1.89,1.89,0,0,1,1.45-.6,2,2,0,0,1,1.48.6,2.29,2.29,0,0,1,.58,1.67v18.8a2.28,2.28,0,0,1-.59,1.67,2,2,0,0,1-1.5.6A1.89,1.89,0,0,1,296.48,48.23Z"/></g></g></svg>