<svg version="1.1" id="Layer_1" xmlns="http://www.w3.org/2000/svg" xmlns:xlink="http://www.w3.org/1999/xlink" x="0px" y="0px"
	 viewBox="500 -500 1500 1500" style="enable-background:new 500 -500 1500 1500;" xml:space="preserve">
<style type="text/css">
	.st0{fill:#ffffff;}
</style>
<path class="st0" d="M764.2,425.2V739c0,22.5,18.2,40.8,40.8,40.8h890.1c22.5,0,40.8-18.2,40.8-40.8V-60.9l-436.4,403.7l-263-122.2
	L764.2,425.2z"/>
<g>
	<path class="st0" d="M1695.1,802.2H804.9c-34.9,0-63.3-28.4-63.3-63.3v-977.8c0-34.9,28.4-63.3,63.3-63.3H1695
		c34.9,0,63.3,28.4,63.3,63.3V739C1758.3,773.8,1729.9,802.2,1695.1,802.2z M804.9-257.2c-10.1,0-18.3,8.2-18.3,18.3V739
		c0,10.1,8.2,18.3,18.3,18.3H1695c10.1,0,18.3-8.2,18.3-18.3v-977.9c0-10.1-8.2-18.3-18.3-18.3H804.9z"/>
</g>
<g>
	<path class="st0" d="M991.3,61.5c-53.3,0-96.6-43.3-96.6-96.6s43.3-96.6,96.6-96.6s96.6,43.3,96.6,96.6
		C1087.9,18.2,1044.5,61.5,991.3,61.5z M991.3-86.7c-28.5,0-51.6,23.2-51.6,51.6s23.2,51.6,51.6,51.6l0,0
		c28.5,0,51.6-23.2,51.6-51.6C1042.9-63.6,1019.7-86.7,991.3-86.7z"/>
</g>
<g>
	<g>
		<path class="st0" d="M649.5,394.6c-6.5,0-13-2.8-17.5-8.3l-99.4-122.1c-6.7-8.3-6.7-20.2,0-28.4l99.5-122.1
			c7.9-9.6,22-11.1,31.7-3.2c9.6,7.9,11.1,22,3.2,31.7L579,250l88,107.9c7.9,9.6,6.4,23.8-3.2,31.7
			C659.6,392.9,654.5,394.6,649.5,394.6z"/>
	</g>
	<g>
		<path class="st0" d="M1850.5,394.6c-5,0-10-1.7-14.2-5.1c-9.6-7.9-11.1-22-3.2-31.7L1921,250l-88-107.9
			c-7.9-9.6-6.4-23.8,3.2-31.7s23.8-6.4,31.7,3.2l99.5,122.1c6.7,8.3,6.7,20.2,0,28.4l-99.5,122.1
			C1863.5,391.7,1857,394.6,1850.5,394.6z"/>
	</g>
</g>
</svg>
