<svg xmlns="http://www.w3.org/2000/svg" xmlns:xlink="http://www.w3.org/1999/xlink" x="0px" y="0px" viewBox="500 -500 1500 1500">
<style type="text/css">
	.st0{fill:#ffffff;}
</style>
<g>
	<g>
		<path class="st0" d="M1186.4,556.5c-46.2,0-91-12.9-129.4-37.3c-13-8.2-18.8-23.7-14.5-38.4c4.3-14.8,17.4-24.8,32.6-24.8
			c1.5,0,3,0.1,4.5,0.3c7.1,0.9,14.6,1,22,0.4c-8.5-10.1-15.1-21.8-19.3-34.6c-1.5-4.4-2-9.1-1.6-13.6c-16.3-19-25.4-43.2-25.4-68.4
			c0-6.9,2-13.4,5.5-18.8c-9.2-28.1-5.9-59.1,9.7-85.8c6.1-10.5,17.5-17,29.6-17c10.2,0,19.8,4.5,26.4,12.4
			c23.2,28.1,54.3,47.8,89.2,56.8c2.2-9.9,5.9-19.5,11-28.3c9.7-16.9,24.4-31,42.3-40.6c16-8.6,33.9-13.2,51.8-13.2
			c25.4,0,49.7,9,69,25.6c0.6,0,1.1,0.1,1.7,0.1c4.7,0,10-1.7,16-5.3c0,0,0.1,0,0.1-0.1c5.3-3,11.2-4.7,17.2-4.7
			c18.9,0,34.3,15.4,34.3,34.3c0,27.4-16,53.3-32.2,70.1c-1.5,58.2-25.1,115.1-65.6,157.7C1316.1,530.5,1254,556.5,1186.4,556.5z
			 M1119,499.8c21.4,7.8,44.2,11.8,67.5,11.8c55.1,0,105.6-21.1,142.1-59.4c34.8-36.5,54.1-86.1,53.2-135.9
			c-0.1-6.7,2.8-13.2,7.9-17.5c7.1-6.1,14.5-15.3,19.3-24.9c-5.9,1.6-11.7,2.3-17.6,2.3c-6.1,0-12.2-0.9-18.3-2.6
			c-3.6-1-6.9-2.9-9.6-5.5c-11.6-11.3-26.8-17.5-42.8-17.5c-10.4,0-20.9,2.7-30.4,7.8c-21.2,11.4-33.2,31.9-32.1,55
			c0.3,6.6-2.3,13-7.2,17.5c-4.9,4.5-11.5,6.6-18,5.8c-49.8-6.1-95.3-28.7-129.7-64.4c-4.4,15-2.9,31,4.6,44.8
			c3.5,6.4,3.6,14,0.5,20.5c-1.7,3.6-4.4,6.7-7.6,8.9c1.6,15,9,29.1,20.8,39.3c4.8,4.1,7.6,10.1,7.8,16.4c0.1,3.7-0.7,7.3-2.3,10.5
			c6.3,14.7,18.2,26.5,33.3,32.7c8.2,3.4,13.6,11.3,13.9,20.2c0.2,8.9-4.8,17.1-12.8,20.9C1147.8,492.8,1133.6,497.3,1119,499.8z"/>
	</g>
	<g>
		<g>
			<path class="st0" d="M1039.7-44.3H742.8v-138.8c0-22.2,18-40.2,40.2-40.2h256.6L1039.7-44.3L1039.7-44.3z"/>
		</g>
		<g>
			<path class="st0" d="M1039.7-21.8H742.8c-12.4,0-22.5-10.1-22.5-22.5v-138.8c0-34.6,28.1-62.7,62.7-62.7h256.6
				c12.4,0,22.5,10.1,22.5,22.5v179C1062.2-31.9,1052.1-21.8,1039.7-21.8z M765.3-66.8h251.9v-134H783.1c-9.8,0-17.7,8-17.7,17.7
				v116.3H765.3z"/>
		</g>
		<g>
			<path class="st0" d="M1757.2-21.8h-647.4c-12.4,0-22.5-10.1-22.5-22.5v-179c0-12.4,10.1-22.5,22.5-22.5h607.1
				c34.6,0,62.7,28.1,62.7,62.7v138.8C1779.7-31.9,1769.6-21.8,1757.2-21.8z M1132.3-66.8h602.4v-116.3c0-9.8-8-17.7-17.7-17.7
				h-584.7V-66.8z"/>
		</g>
	</g>
	<g>
		<path class="st0" d="M1716.9,745.8H783.1c-34.6,0-62.7-28.1-62.7-62.7V38.7c0-12.4,10.1-22.5,22.5-22.5h1014.4
			c12.4,0,22.5,10.1,22.5,22.5v644.4C1779.7,717.7,1751.5,745.8,1716.9,745.8z M765.3,61.2v621.9c0,9.8,8,17.7,17.7,17.7h933.9
			c9.8,0,17.7-8,17.7-17.7V61.2H765.3z"/>
	</g>
</g>
<g>
	<g>
		<g>
			<path class="st0" d="M647.3,395.3c-6.6,0-13.2-2.9-17.7-8.5L532.4,264c-6.5-8.2-6.5-19.8,0-27.9l97.3-122.8
				c7.7-9.7,21.9-11.4,31.6-3.7c9.7,7.7,11.4,21.9,3.7,31.6L578.7,250l86.2,108.9c7.7,9.7,6.1,23.9-3.7,31.6
				C657.1,393.7,652.2,395.3,647.3,395.3z"/>
		</g>
		<g>
			<path class="st0" d="M1852.7,395.3c-4.9,0-9.8-1.6-14-4.9c-9.7-7.7-11.4-21.9-3.7-31.6l86.2-108.9L1835,141
				c-7.7-9.7-6.1-23.9,3.7-31.6c9.7-7.7,23.9-6.1,31.6,3.7l97.3,122.8c6.5,8.2,6.5,19.8,0,27.9l-97.3,122.8
				C1865.9,392.4,1859.3,395.3,1852.7,395.3z"/>
		</g>
	</g>
</g>
</svg>
